<?xml version="1.0" encoding="iso-8859-1"?>
<!-- Generator: Adobe Illustrator 19.0.0, SVG Export Plug-In . SVG Version: 6.00 Build 0)  -->
<svg version="1.1" id="Layer_1" xmlns="http://www.w3.org/2000/svg" xmlns:xlink="http://www.w3.org/1999/xlink" x="0px" y="0px"
	 viewBox="0 0 512 512" style="enable-background:new 0 0 512 512;" xml:space="preserve">
<g>
	<g>
		<path d="M213.333,147.552c0,7.808,9.003,15.253,21.333,19.499v-38.976C222.336,132.32,213.333,139.765,213.333,147.552z"/>
	</g>
</g>
<g>
	<g>
		<path d="M389.611,0H122.389c-20.437,0-37.056,16.832-37.056,37.525v453.141c0,8.619,5.184,16.405,13.163,19.712
			c7.979,3.285,17.152,1.472,23.253-4.629l10.453-10.453l28.928,14.464c5.995,2.987,13.077,2.987,19.072,0l33.131-16.576
			l33.131,16.576c5.995,2.987,13.077,2.987,19.072,0l33.131-16.576l33.131,16.576c5.995,2.987,13.077,2.987,19.072,0l28.928-14.464
			l10.453,10.453c4.075,4.075,9.536,6.251,15.083,6.251c2.752,0,5.525-0.533,8.171-1.621c7.979-3.307,13.163-11.093,13.163-19.712
			V37.525C426.667,16.832,410.048,0,389.611,0z M234.667,384h-64c-11.797,0-21.333-9.557-21.333-21.333s9.536-21.333,21.333-21.333
			h64c11.797,0,21.333,9.557,21.333,21.333S246.464,384,234.667,384z M277.077,299.904C276.416,311.083,267.349,320,256,320
			c-11.435,0-20.565-9.045-21.12-20.331c-8-1.749-16.171-4.395-23.979-7.595C207.403,299.072,200.363,304,192,304
			c-11.797,0-21.333-9.557-21.333-21.333v-53.333c0-11.776,9.536-21.333,21.333-21.333s21.333,9.557,21.333,21.333v16.341
			c5.44,3.413,13.163,7.04,21.333,9.749v-44.459c-34.091-6.784-64-29.269-64-63.403c0-34.219,30.059-56.747,64.256-63.467
			C235.584,72.917,244.651,64,256,64c11.413,0,20.523,9.003,21.12,20.245c8.064,1.749,16.235,4.373,24.043,7.573
			C304.683,84.885,311.68,80,320,80c11.797,0,21.333,9.557,21.333,21.333v53.333c0,11.776-9.536,21.333-21.333,21.333
			s-21.333-9.557-21.333-21.333V138.24c-5.461-3.499-13.141-7.147-21.333-9.813v44.608c34.091,6.784,64,29.269,64,63.403
			C341.333,270.656,311.275,293.184,277.077,299.904z M341.333,384H320c-11.797,0-21.333-9.557-21.333-21.333
			s9.536-21.333,21.333-21.333h21.333c11.797,0,21.333,9.557,21.333,21.333S353.131,384,341.333,384z"/>
	</g>
</g>
<g>
	<g>
		<path d="M277.333,216.951v38.976c12.331-4.245,21.333-11.691,21.333-19.477C298.667,228.642,289.664,221.197,277.333,216.951z"/>
	</g>
</g>
<g>
</g>
<g>
</g>
<g>
</g>
<g>
</g>
<g>
</g>
<g>
</g>
<g>
</g>
<g>
</g>
<g>
</g>
<g>
</g>
<g>
</g>
<g>
</g>
<g>
</g>
<g>
</g>
<g>
</g>
</svg>
